<svg width="136" height="132" viewBox="0 0 136 132" fill="none" xmlns="http://www.w3.org/2000/svg">
<path d="M48.0527 113.234V63.3423C48.0527 63.3423 65.8834 63.6209 72.7032 69.8951C76.2446 73.1531 79.1769 77.5135 81.179 80.9554C83.2724 84.5542 84.0924 88.6996 84.0924 92.8629V113.772C84.0924 116.183 83.8454 118.614 82.8045 120.789C80.7576 125.066 75.9114 131.872 65.7995 131.872C56.7572 131.872 51.9075 125.524 49.6634 121.237C48.3809 118.786 48.0527 115.999 48.0527 113.234Z" fill="white"/>
<path d="M9.36552 11.4672C5.09139 19.6036 6.77093 26.0562 7.47612 28.0372C7.59363 28.3673 7.98863 28.4627 8.26704 28.25C9.16086 27.5671 10.9621 26.2315 12.0958 25.6646C14.8234 24.3008 18.0012 24.2995 21.0507 24.2995H111.379C113.446 24.2995 115.526 24.3759 117.506 24.9683C119.124 25.4525 121.148 26.2603 122.945 27.5758C125.89 29.7315 128.26 34.4165 129.134 36.3116C129.306 36.6836 129.804 36.7514 130.046 36.4211C131.909 33.8828 137.729 24.86 134.958 14.4705C132.81 6.41395 125.966 2.70118 121.508 1.09967C118.892 0.159823 116.089 0 113.309 0H28.6049C25.4317 0 22.2056 0.198282 19.3654 1.61329C16.2617 3.15954 12.1925 6.08568 9.36552 11.4672Z" fill="white"/>
<path d="M0.468208 49.9646C-1.89435 35.3169 5.3515 30.073 7.34622 28.9262C7.61322 28.7727 7.93338 28.9003 8.05402 29.1837C8.87029 31.1011 11.9218 37.8445 15.4847 40.4087C17.7782 42.0592 20.7668 43.1325 22.9938 43.7645C25.0221 44.3401 27.1395 44.4203 29.2468 44.5002L29.3592 44.5044C30.8175 44.5598 32.5111 44.7051 33.8555 45.0501C37.6655 46.0279 39.0885 47.224 42.5144 49.9646C47.9751 54.3331 48.0529 63.343 48.0529 63.343H18.7468C16.9914 63.343 15.2355 63.2091 13.5617 62.68C9.46803 61.3859 1.75165 57.9219 0.468208 49.9646Z" fill="white"/>
<path d="M123.41 40.6809C125.249 39.8131 127.633 38.1197 128.868 37.2058C129.22 36.945 129.719 37.1756 129.729 37.6138C129.79 40.3584 129.667 47.8991 126.686 51.602C125.714 52.809 124.254 53.8563 122.715 54.7233C118.356 57.179 113.228 57.6086 108.225 57.6086H90.7821C88.8727 57.6086 86.8309 57.6375 85.3149 56.4767C84.0205 55.4857 82.7285 53.6432 82.7285 50.2368C82.7285 47.6859 83.4531 45.9739 84.3606 44.8301C86.1332 42.596 89.3486 42.5921 92.2005 42.5921H111.318C115.362 42.5921 119.513 42.4323 123.203 40.776C123.273 40.7445 123.342 40.7128 123.41 40.6809Z" fill="white"/>
</svg>
