<svg width="503" height="90" viewBox="0 0 503 90" fill="none" xmlns="http://www.w3.org/2000/svg">
<path d="M14.5649 87.9707V13.9561H0.37873V1.62033H42.3203V13.9561H28.1342V87.9707H14.5649ZM49.5194 87.9707L63.5822 1.62033H81.9625L96.0253 87.9707H82.4559L79.9888 70.824V71.0707H64.569L62.1019 87.9707H49.5194ZM66.1727 59.3517H78.3851L72.3406 16.67H72.0939L66.1727 59.3517ZM129.756 89.2043C116.433 89.2043 109.772 81.3094 109.772 67.4933V62.559H122.601V68.4802C122.601 74.6481 125.315 76.8685 129.633 76.8685C133.95 76.8685 136.664 74.6481 136.664 68.2335C136.664 61.0787 133.95 56.5145 125.068 48.743C113.719 38.751 110.019 31.7196 110.019 21.851C110.019 8.28165 117.05 0.386756 130.249 0.386756C143.449 0.386756 149.987 8.28165 149.987 22.0977V25.6751H137.157V21.2342C137.157 15.0663 134.69 12.7225 130.373 12.7225C126.055 12.7225 123.588 15.0663 123.588 20.9875C123.588 27.2787 126.425 31.843 135.307 39.6145C146.656 49.6065 150.233 56.5145 150.233 67.2466C150.233 81.3094 143.078 89.2043 129.756 89.2043ZM178.491 87.9707V13.9561H164.305V1.62033H206.246V13.9561H192.06V87.9707H178.491ZM222.685 87.9707V1.62033H259.692V13.9561H236.254V36.7773H254.881V49.113H236.254V75.6349H259.692V87.9707H222.685ZM277.367 87.9707V1.62033H313.264V13.9561H290.936V38.0108H308.453V50.3466H290.936V87.9707H277.367ZM329.64 87.9707V1.62033H343.209V75.6349H365.537V87.9707H329.64ZM401.044 89.2043C387.722 89.2043 380.444 81.3094 380.444 67.4933V22.0977C380.444 8.28165 387.722 0.386756 401.044 0.386756C414.367 0.386756 421.645 8.28165 421.645 22.0977V67.4933C421.645 81.3094 414.367 89.2043 401.044 89.2043ZM401.044 76.8685C405.362 76.8685 408.076 74.5247 408.076 68.3568V21.2342C408.076 15.0663 405.362 12.7225 401.044 12.7225C396.727 12.7225 394.013 15.0663 394.013 21.2342V68.3568C394.013 74.5247 396.727 76.8685 401.044 76.8685ZM446.242 87.9707L437.483 1.62033H450.559L456.604 67.9868H456.85L463.265 1.62033H478.068L484.482 67.9868H484.729L490.774 1.62033H502.493L493.734 87.9707H476.834L470.666 29.7459H470.42L464.252 87.9707H446.242Z" fill="white"/>
</svg>
